<?xml version="1.0" encoding="UTF-8"?><svg id="Layer_1" xmlns="http://www.w3.org/2000/svg" viewBox="0 0 58.59 17.99"><path d="M34.67,2.18c0,1.18.98,2.15,2.18,2.15s2.15-.95,2.15-2.15-.95-2.18-2.15-2.18-2.18,1.01-2.18,2.18Z"/><path d="M54.25,2.18c0,1.18.98,2.15,2.18,2.15s2.15-.95,2.15-2.15-.95-2.18-2.15-2.18-2.18,1.01-2.18,2.18Z"/><path d="M38.71,5.86h-3.76v12h3.76V5.86Z"/><path d="M52.49.53h-10.63v17.33h3.76v-6.55h5.79v-3.28h-5.79V3.81h6.88V.53Z"/><path d="M58.3,5.86h-3.76v12h3.76V5.86Z"/><path d="M13.1,8.04v-2.19h2.18v-2.18h2.18v2.18h-2.18v2.18h2.18v.69c0,.8-.07,1.75-.23,2.49-.09.42-.22.83-.38,1.23-.1.25-.2.49-.32.72l-.05.1s-.03.07-.05.1l-.03.06s-.03.05-.04.07c-.02.03-.04.07-.06.1-.26.46-.56.89-.91,1.3l-.04.05h0c-.09.1-.17.2-.26.3-.11.11-.22.22-.33.33-1.4,1.34-3.22,2.18-5.12,2.38-.23.02-.69.05-.92.05-.12,0-.29,0-.47-.02-.17,0-.34-.02-.45-.03-1.9-.19-3.72-1.03-5.12-2.38l-.04-.04h0c-.1-.1-.19-.19-.28-.29-.11-.11-.21-.23-.31-.35-.35-.41-.65-.85-.91-1.3-.06-.11-.12-.22-.18-.33-.05-.1-.1-.2-.15-.31-.04-.08-.07-.15-.1-.23-.02-.04-.03-.07-.05-.11l-.02-.06-.02-.05-.02-.06c-.16-.4-.29-.81-.38-1.23-.16-.74-.23-1.69-.23-2.49V.53h4.36v7.64c0,.08,0,.18,0,.29,0,.13,0,.26,0,.34,0,.26.02.51.05.76.07.68.22,1.31.53,1.85.09.16.18.31.29.45.66.88,1.65,1.53,2.9,1.72.15.02.45.04.6.04s.45-.02.6-.04c1.24-.18,2.24-.84,2.9-1.72.07-.09.12-.18.18-.27.04-.06.07-.12.11-.18.31-.54.46-1.18.53-1.85.03-.25.04-.5.04-.76,0-.09,0-.26,0-.42v-.23s0-.11,0-.11Z"/><path d="M15.28,3.67h-1.64v-1.64h1.64v1.64Z"/><path d="M15.82.4h1.09v1.09h-1.09V.4Z"/><path d="M31.82,17.86h-3.73v-7.06s0-.25,0-.33h0c0-.11,0-.22-.02-.33-.03-.29-.09-.56-.23-.8h0s0-.02,0-.02c-.04-.06-.07-.12-.11-.18-.28-.38-.71-.66-1.25-.74-.02,0-.06,0-.09-.01h-.04s-.09,0-.12,0c-.04,0-.1,0-.15,0-.04,0-.08,0-.1.01-.54.08-.97.36-1.25.74-.01.01-.02.03-.03.04-.01.02-.02.03-.03.05-.02.04-.04.07-.06.11-.13.23-.2.51-.23.8-.01.11-.02.22-.02.33,0,.08,0,.33,0,.33v7.04h-3.73V5.84h3.59v1.09s1.28-1.59,3.83-1.48c2.29.1,3.79,1.86,3.79,4.26v8.15Z"/></svg>