<svg width="408" height="369" viewBox="0 0 408 369" fill="none" xmlns="http://www.w3.org/2000/svg">
<g opacity="0.7" filter="url(#filter0_d_539_2164)">
<path d="M20 2.5H388C396.56 2.5 403.5 9.43959 403.5 18V347C403.5 355.56 396.56 362.5 388 362.5H20C11.4396 362.5 4.5 355.56 4.5 347V18C4.50001 9.43959 11.4396 2.5 20 2.5Z" stroke="#EAEAEA" shape-rendering="crispEdges"/>
<path d="M37.7305 37.9297C37.7305 42.4414 35.0156 45.1953 31.3633 45.1953C27.6719 45.1953 24.9766 42.4414 24.9766 37.9297C24.9766 33.3984 27.6719 30.6641 31.3633 30.6641C35.0156 30.6641 37.7305 33.3984 37.7305 37.9297ZM35.6016 37.9297C35.6016 34.4922 33.7852 32.6367 31.3633 32.6367C28.9219 32.6367 27.1055 34.4922 27.1055 37.9297C27.1055 41.3672 28.9219 43.2227 31.3633 43.2227C33.7852 43.2227 35.6016 41.3672 35.6016 37.9297ZM42.0664 30.8594V45H39.9766V30.8594H42.0664ZM44.6055 45V34.3945H46.6953V45H44.6055ZM45.6602 32.7539C44.9375 32.7539 44.332 32.207 44.332 31.5234C44.332 30.8398 44.9375 30.293 45.6602 30.293C46.3633 30.293 46.9688 30.8398 46.9688 31.5234C46.9688 32.207 46.3633 32.7539 45.6602 32.7539ZM58.3359 34.3945L54.4883 45H52.2422L48.3945 34.3945H50.6406L53.3164 42.5391H53.4141L56.0898 34.3945H58.3359ZM64.2344 45.2148C61.1094 45.2148 59.1953 43.0664 59.1953 39.7656C59.1953 36.5039 61.1484 34.2578 64.0977 34.2578C66.5195 34.2578 68.8047 35.7617 68.8047 39.5898V40.332H61.2656C61.3242 42.3438 62.5059 43.4961 64.2539 43.4961C65.4453 43.4961 66.207 42.9883 66.5586 42.3438H68.668C68.1992 44.0625 66.5586 45.2148 64.2344 45.2148ZM61.2852 38.7695H66.7539C66.7539 37.1484 65.7188 35.9766 64.1172 35.9766C62.4473 35.9766 61.3633 37.2656 61.2852 38.7695ZM70.875 45V34.3945H72.8867V36.0742H73.0039C73.3945 34.9414 74.4492 34.2383 75.6992 34.2383C75.9531 34.2383 76.3633 34.2578 76.5781 34.2773V36.2695C76.4023 36.2305 75.9141 36.1523 75.4844 36.1523C74.0391 36.1523 72.9648 37.1484 72.9648 38.5352V45H70.875ZM85.3086 45L82.2031 34.3945H84.3516L86.4219 42.168H86.5391L88.6094 34.3945H90.7578L92.8086 42.1289H92.9258L94.9766 34.3945H97.125L94.0195 45H91.8906L89.7422 37.3633H89.5859L87.457 45H85.3086ZM98.3555 42.0117C98.3555 39.5898 100.406 38.9648 102.32 38.8281C103.023 38.7793 104.615 38.6914 105.113 38.6719L105.094 37.832C105.094 36.6406 104.371 35.9375 102.945 35.9375C101.715 35.9375 100.973 36.5039 100.758 37.2852H98.6875C98.8828 35.5273 100.523 34.2578 103.023 34.2578C104.703 34.2578 107.184 34.8828 107.184 37.9492V45H105.152V43.5547H105.074C104.664 44.3555 103.688 45.2344 101.93 45.2344C99.918 45.2344 98.3555 44.082 98.3555 42.0117ZM100.387 42.0312C100.387 43.0469 101.227 43.5742 102.398 43.5742C104.098 43.5742 105.113 42.4414 105.113 41.1719V40.1953L102.613 40.3711C101.246 40.4688 100.387 40.9766 100.387 42.0312ZM111.793 38.7109V45H109.703V34.3945H111.715V36.1328H111.832C112.34 35 113.375 34.2578 114.957 34.2578C117.145 34.2578 118.57 35.625 118.57 38.2617V45H116.5V38.5156C116.5 36.9727 115.66 36.0547 114.254 36.0547C112.828 36.0547 111.793 37.0117 111.793 38.7109ZM126.07 34.3945V36.0547H123.902V41.875C123.902 43.0664 124.508 43.2812 125.172 43.3008C125.465 43.3008 125.934 43.2617 126.227 43.2422V45.0586C125.934 45.0977 125.484 45.1367 124.918 45.1367C123.277 45.1367 121.812 44.2383 121.832 42.3047V36.0547H120.27V34.3945H121.832V31.8555H123.902V34.3945H126.07ZM133.883 37.2852C133.688 36.4453 133.023 35.8984 131.871 35.8984C130.68 35.8984 129.82 36.5234 129.84 37.3242C129.82 37.9492 130.328 38.3984 131.5 38.6719L133.18 39.0625C135.133 39.4922 136.07 40.4297 136.09 41.9336C136.07 43.8477 134.469 45.2148 131.754 45.2148C129.215 45.2148 127.691 44.082 127.438 42.1094H129.566C129.742 43.0664 130.484 43.5352 131.734 43.5352C133.082 43.5352 133.941 42.9883 133.961 42.0898C133.941 41.4062 133.434 40.957 132.32 40.7031L130.66 40.3516C128.746 39.9219 127.75 38.9062 127.75 37.4414C127.75 35.5469 129.391 34.2578 131.852 34.2578C134.215 34.2578 135.68 35.4688 135.895 37.2852H133.883ZM147.965 34.3945V36.0547H145.797V41.875C145.797 43.0664 146.402 43.2812 147.066 43.3008C147.359 43.3008 147.828 43.2617 148.121 43.2422V45.0586C147.828 45.0977 147.379 45.1367 146.812 45.1367C145.172 45.1367 143.707 44.2383 143.727 42.3047V36.0547H142.164V34.3945H143.727V31.8555H145.797V34.3945H147.965ZM154.371 45.2148C151.363 45.2148 149.41 43.0273 149.41 39.7461C149.41 36.4453 151.363 34.2578 154.371 34.2578C157.359 34.2578 159.312 36.4453 159.312 39.7461C159.312 43.0273 157.359 45.2148 154.371 45.2148ZM154.371 43.4766C156.285 43.4766 157.203 41.7773 157.203 39.7461C157.203 37.7148 156.285 35.9766 154.371 35.9766C152.418 35.9766 151.5 37.7148 151.5 39.7461C151.5 41.7773 152.418 43.4766 154.371 43.4766ZM166.246 48.9844V34.3945H168.277V36.1133H168.453C168.824 35.4492 169.547 34.2578 171.5 34.2578C174.059 34.2578 175.953 36.2695 175.953 39.7266C175.953 43.1445 174.098 45.2148 171.52 45.2148C169.586 45.2148 168.824 44.043 168.453 43.3398H168.336V48.9844H166.246ZM168.297 39.6875C168.297 41.9141 169.273 43.4375 171.051 43.4375C172.887 43.4375 173.844 41.8164 173.844 39.6875C173.844 37.5977 172.906 36.0352 171.051 36.0352C169.254 36.0352 168.297 37.4805 168.297 39.6875ZM177.535 42.0117C177.535 39.5898 179.586 38.9648 181.5 38.8281C182.203 38.7793 183.795 38.6914 184.293 38.6719L184.273 37.832C184.273 36.6406 183.551 35.9375 182.125 35.9375C180.895 35.9375 180.152 36.5039 179.938 37.2852H177.867C178.062 35.5273 179.703 34.2578 182.203 34.2578C183.883 34.2578 186.363 34.8828 186.363 37.9492V45H184.332V43.5547H184.254C183.844 44.3555 182.867 45.2344 181.109 45.2344C179.098 45.2344 177.535 44.082 177.535 42.0117ZM179.566 42.0312C179.566 43.0469 180.406 43.5742 181.578 43.5742C183.277 43.5742 184.293 42.4414 184.293 41.1719V40.1953L181.793 40.3711C180.426 40.4688 179.566 40.9766 179.566 42.0312ZM188.883 45V34.3945H190.973V45H188.883ZM189.938 32.7539C189.215 32.7539 188.609 32.207 188.609 31.5234C188.609 30.8398 189.215 30.293 189.938 30.293C190.641 30.293 191.246 30.8398 191.246 31.5234C191.246 32.207 190.641 32.7539 189.938 32.7539ZM193.512 45V34.3945H195.523V36.0742H195.641C196.031 34.9414 197.086 34.2383 198.336 34.2383C198.59 34.2383 199 34.2578 199.215 34.2773V36.2695C199.039 36.2305 198.551 36.1523 198.121 36.1523C196.676 36.1523 195.602 37.1484 195.602 38.5352V45H193.512Z" fill="black"/>
<path d="M24 78C24 71.3726 29.3726 66 36 66H372C378.627 66 384 71.3726 384 78V107C384 113.627 378.627 119 372 119H36C29.3726 119 24 113.627 24 107V78Z" fill="#1F2024"/>
<path d="M52.3574 92.6367C52.3574 96.6973 49.9141 99.1758 46.627 99.1758C43.3047 99.1758 40.8789 96.6973 40.8789 92.6367C40.8789 88.5586 43.3047 86.0977 46.627 86.0977C49.9141 86.0977 52.3574 88.5586 52.3574 92.6367ZM50.4414 92.6367C50.4414 89.543 48.8066 87.873 46.627 87.873C44.4297 87.873 42.7949 89.543 42.7949 92.6367C42.7949 95.7305 44.4297 97.4004 46.627 97.4004C48.8066 97.4004 50.4414 95.7305 50.4414 92.6367ZM54.5371 99V86.2734H56.4707V97.3301H62.2188V99H54.5371ZM64.0645 86.2734L67.5977 96.627H67.7383L71.2715 86.2734H73.3633L68.7754 99H66.543L61.9727 86.2734H64.0645ZM79.7266 91.8281V93.4453H74.084V91.8281H79.7266ZM82.1523 99V86.2734H90.0449V87.9434H84.0859V91.793H89.4824V93.4453H84.0859V99H82.1523ZM94.1406 86.2734V99H92.207V86.2734H94.1406ZM96.7246 99V86.2734H101.26C104.213 86.2734 105.672 87.9258 105.672 90.2637C105.672 91.9775 104.898 93.2783 103.352 93.8496L106.164 99H103.967L101.383 94.2012H101.26H98.6582V99H96.7246ZM98.6582 92.5312H101.066C102.947 92.5312 103.721 91.7051 103.721 90.2637C103.721 88.8223 102.947 87.9258 101.066 87.9258H98.6582V92.5312ZM113.283 91.8281V93.4453H107.641V91.8281H113.283ZM116.025 86.2734L119.049 91.2305H119.154L122.195 86.2734H124.428L120.455 92.6367L124.463 99H122.195L119.154 94.0957H119.049L115.99 99H113.74L117.801 92.6367L113.758 86.2734H116.025ZM127.486 86.2734L130.51 91.2305H130.615L133.656 86.2734H135.889L131.916 92.6367L135.924 99H133.656L130.615 94.0957H130.51L127.451 99H125.201L129.262 92.6367L125.219 86.2734H127.486ZM138.947 86.2734L141.971 91.2305H142.076L145.117 86.2734H147.35L143.377 92.6367L147.385 99H145.117L142.076 94.0957H141.971L138.912 99H136.662L140.723 92.6367L136.68 86.2734H138.947ZM150.408 86.2734L153.432 91.2305H153.537L156.578 86.2734H158.811L154.838 92.6367L158.846 99H156.578L153.537 94.0957H153.432L150.373 99H148.123L152.184 92.6367L148.141 86.2734H150.408ZM161.869 86.2734L164.893 91.2305H164.998L168.039 86.2734H170.271L166.299 92.6367L170.307 99H168.039L164.998 94.0957H164.893L161.834 99H159.584L163.645 92.6367L159.602 86.2734H161.869ZM173.33 86.2734L176.354 91.2305H176.459L179.5 86.2734H181.732L177.76 92.6367L181.768 99H179.5L176.459 94.0957H176.354L173.295 99H171.045L175.105 92.6367L171.062 86.2734H173.33ZM184.791 86.2734L187.814 91.2305H187.92L190.961 86.2734H193.193L189.221 92.6367L193.229 99H190.961L187.92 94.0957H187.814L184.756 99H182.506L186.566 92.6367L182.523 86.2734H184.791ZM196.252 86.2734L199.275 91.2305H199.381L202.422 86.2734H204.654L200.682 92.6367L204.689 99H202.422L199.381 94.0957H199.275L196.217 99H193.967L198.027 92.6367L193.984 86.2734H196.252Z" fill="white"/>
<path d="M41.3008 152V139.273H45.959C48.666 139.273 49.9844 140.732 49.9844 142.613C49.9844 144.195 49.0176 145.004 47.8398 145.303V145.426C49.1055 145.496 50.4766 146.604 50.4766 148.572C50.4766 150.523 49.1406 152 46.1699 152H41.3008ZM45.9941 150.348C47.8223 150.348 48.5605 149.539 48.5605 148.484C48.5605 147.271 47.5938 146.287 46.0645 146.287H43.2344V150.348H45.9941ZM45.8008 144.775C47.084 144.775 48.0859 143.984 48.0859 142.771C48.0859 141.717 47.3652 140.926 45.8359 140.926H43.2344V144.775H45.8008ZM54.2734 139.273V152H52.3926V139.273H54.2734ZM62.623 148.027V142.455H64.4863V152H62.6582V150.348H62.5527C62.1133 151.367 61.1289 152.123 59.7051 152.123C57.8594 152.123 56.5586 150.893 56.5586 148.52V142.455H58.4395V148.291C58.4395 149.592 59.2305 150.418 60.373 150.418C61.4102 150.418 62.623 149.662 62.623 148.027ZM70.8848 152.193C68.0723 152.193 66.3496 150.26 66.3496 147.289C66.3496 144.354 68.1074 142.332 70.7617 142.332C72.9414 142.332 74.998 143.686 74.998 147.131V147.799H68.2129C68.2656 149.609 69.3291 150.646 70.9023 150.646C71.9746 150.646 72.6602 150.189 72.9766 149.609H74.875C74.4531 151.156 72.9766 152.193 70.8848 152.193ZM68.2305 146.393H73.1523C73.1523 144.934 72.2207 143.879 70.7793 143.879C69.2764 143.879 68.3008 145.039 68.2305 146.393ZM81.3262 142.455V143.949H79.375V149.188C79.375 150.26 79.9199 150.453 80.5176 150.471C80.7812 150.471 81.2031 150.436 81.4668 150.418V152.053C81.2031 152.088 80.7988 152.123 80.2891 152.123C78.8125 152.123 77.4941 151.314 77.5117 149.574V143.949H76.1055V142.455H77.5117V140.17H79.375V142.455H81.3262ZM87.0918 152.193C84.3848 152.193 82.627 150.225 82.627 147.271C82.627 144.301 84.3848 142.332 87.0918 142.332C89.7812 142.332 91.5391 144.301 91.5391 147.271C91.5391 150.225 89.7812 152.193 87.0918 152.193ZM87.0918 150.629C88.8145 150.629 89.6406 149.1 89.6406 147.271C89.6406 145.443 88.8145 143.879 87.0918 143.879C85.334 143.879 84.5078 145.443 84.5078 147.271C84.5078 149.1 85.334 150.629 87.0918 150.629ZM97.4277 152.193C94.7207 152.193 92.9629 150.225 92.9629 147.271C92.9629 144.301 94.7207 142.332 97.4277 142.332C100.117 142.332 101.875 144.301 101.875 147.271C101.875 150.225 100.117 152.193 97.4277 152.193ZM97.4277 150.629C99.1504 150.629 99.9766 149.1 99.9766 147.271C99.9766 145.443 99.1504 143.879 97.4277 143.879C95.6699 143.879 94.8438 145.443 94.8438 147.271C94.8438 149.1 95.6699 150.629 97.4277 150.629ZM108.186 142.455V143.949H106.234V149.188C106.234 150.26 106.779 150.453 107.377 150.471C107.641 150.471 108.062 150.436 108.326 150.418V152.053C108.062 152.088 107.658 152.123 107.148 152.123C105.672 152.123 104.354 151.314 104.371 149.574V143.949H102.965V142.455H104.371V140.17H106.234V142.455H108.186ZM112.105 146.34V152H110.225V139.273H112.07V144.02H112.193C112.65 142.982 113.529 142.332 115.023 142.332C116.992 142.332 118.293 143.545 118.293 145.936V152H116.412V146.164C116.412 144.758 115.656 143.949 114.391 143.949C113.072 143.949 112.105 144.811 112.105 146.34ZM129.244 152H125.113V139.273H129.367C133.111 139.273 135.361 141.664 135.361 145.619C135.361 149.592 133.111 152 129.244 152ZM127.047 150.312H129.139C132.021 150.312 133.445 148.625 133.445 145.619C133.445 142.631 132.021 140.961 129.244 140.961H127.047V150.312ZM141.496 152.193C138.684 152.193 136.961 150.26 136.961 147.289C136.961 144.354 138.719 142.332 141.373 142.332C143.553 142.332 145.609 143.686 145.609 147.131V147.799H138.824C138.877 149.609 139.94 150.646 141.514 150.646C142.586 150.646 143.271 150.189 143.588 149.609H145.486C145.064 151.156 143.588 152.193 141.496 152.193ZM138.842 146.393H143.764C143.764 144.934 142.832 143.879 141.391 143.879C139.888 143.879 138.912 145.039 138.842 146.393ZM155.365 142.455L151.902 152H149.881L146.418 142.455H148.439L150.848 149.785H150.936L153.344 142.455H155.365ZM156.895 152V142.455H158.775V152H156.895ZM157.844 140.979C157.193 140.979 156.648 140.486 156.648 139.871C156.648 139.256 157.193 138.764 157.844 138.764C158.477 138.764 159.021 139.256 159.021 139.871C159.021 140.486 158.477 140.979 157.844 140.979ZM165.104 152.193C162.326 152.193 160.639 150.137 160.639 147.271C160.639 144.354 162.379 142.332 165.068 142.332C167.248 142.332 168.83 143.615 169.023 145.549H167.195C167.002 144.652 166.281 143.896 165.104 143.896C163.557 143.896 162.52 145.18 162.52 147.219C162.52 149.311 163.539 150.594 165.104 150.594C166.158 150.594 166.967 150.014 167.195 148.977H169.023C168.812 150.822 167.354 152.193 165.104 152.193ZM174.912 152.193C172.1 152.193 170.377 150.26 170.377 147.289C170.377 144.354 172.135 142.332 174.789 142.332C176.969 142.332 179.025 143.686 179.025 147.131V147.799H172.24C172.293 149.609 173.356 150.646 174.93 150.646C176.002 150.646 176.688 150.189 177.004 149.609H178.902C178.48 151.156 177.004 152.193 174.912 152.193ZM172.258 146.393H177.18C177.18 144.934 176.248 143.879 174.807 143.879C173.304 143.879 172.328 145.039 172.258 146.393ZM186.25 145.057C186.074 144.301 185.477 143.809 184.439 143.809C183.367 143.809 182.594 144.371 182.611 145.092C182.594 145.654 183.051 146.059 184.105 146.305L185.617 146.656C187.375 147.043 188.219 147.887 188.236 149.24C188.219 150.963 186.777 152.193 184.334 152.193C182.049 152.193 180.678 151.174 180.449 149.398H182.365C182.523 150.26 183.191 150.682 184.316 150.682C185.529 150.682 186.303 150.189 186.32 149.381C186.303 148.766 185.846 148.361 184.844 148.133L183.35 147.816C181.627 147.43 180.73 146.516 180.73 145.197C180.73 143.492 182.207 142.332 184.422 142.332C186.549 142.332 187.867 143.422 188.061 145.057H186.25Z" fill="#8B8B8B"/>
<path d="M41.3008 205V192.273H45.959C48.666 192.273 49.9844 193.732 49.9844 195.613C49.9844 197.195 49.0176 198.004 47.8398 198.303V198.426C49.1055 198.496 50.4766 199.604 50.4766 201.572C50.4766 203.523 49.1406 205 46.1699 205H41.3008ZM45.9941 203.348C47.8223 203.348 48.5605 202.539 48.5605 201.484C48.5605 200.271 47.5938 199.287 46.0645 199.287H43.2344V203.348H45.9941ZM45.8008 197.775C47.084 197.775 48.0859 196.984 48.0859 195.771C48.0859 194.717 47.3652 193.926 45.8359 193.926H43.2344V197.775H45.8008ZM54.2734 192.273V205H52.3926V192.273H54.2734ZM62.623 201.027V195.455H64.4863V205H62.6582V203.348H62.5527C62.1133 204.367 61.1289 205.123 59.7051 205.123C57.8594 205.123 56.5586 203.893 56.5586 201.52V195.455H58.4395V201.291C58.4395 202.592 59.2305 203.418 60.373 203.418C61.4102 203.418 62.623 202.662 62.623 201.027ZM70.8848 205.193C68.0723 205.193 66.3496 203.26 66.3496 200.289C66.3496 197.354 68.1074 195.332 70.7617 195.332C72.9414 195.332 74.998 196.686 74.998 200.131V200.799H68.2129C68.2656 202.609 69.3291 203.646 70.9023 203.646C71.9746 203.646 72.6602 203.189 72.9766 202.609H74.875C74.4531 204.156 72.9766 205.193 70.8848 205.193ZM68.2305 199.393H73.1523C73.1523 197.934 72.2207 196.879 70.7793 196.879C69.2764 196.879 68.3008 198.039 68.2305 199.393ZM81.3262 195.455V196.949H79.375V202.188C79.375 203.26 79.9199 203.453 80.5176 203.471C80.7812 203.471 81.2031 203.436 81.4668 203.418V205.053C81.2031 205.088 80.7988 205.123 80.2891 205.123C78.8125 205.123 77.4941 204.314 77.5117 202.574V196.949H76.1055V195.455H77.5117V193.17H79.375V195.455H81.3262ZM87.0918 205.193C84.3848 205.193 82.627 203.225 82.627 200.271C82.627 197.301 84.3848 195.332 87.0918 195.332C89.7812 195.332 91.5391 197.301 91.5391 200.271C91.5391 203.225 89.7812 205.193 87.0918 205.193ZM87.0918 203.629C88.8145 203.629 89.6406 202.1 89.6406 200.271C89.6406 198.443 88.8145 196.879 87.0918 196.879C85.334 196.879 84.5078 198.443 84.5078 200.271C84.5078 202.1 85.334 203.629 87.0918 203.629ZM97.4277 205.193C94.7207 205.193 92.9629 203.225 92.9629 200.271C92.9629 197.301 94.7207 195.332 97.4277 195.332C100.117 195.332 101.875 197.301 101.875 200.271C101.875 203.225 100.117 205.193 97.4277 205.193ZM97.4277 203.629C99.1504 203.629 99.9766 202.1 99.9766 200.271C99.9766 198.443 99.1504 196.879 97.4277 196.879C95.6699 196.879 94.8438 198.443 94.8438 200.271C94.8438 202.1 95.6699 203.629 97.4277 203.629ZM108.186 195.455V196.949H106.234V202.188C106.234 203.26 106.779 203.453 107.377 203.471C107.641 203.471 108.062 203.436 108.326 203.418V205.053C108.062 205.088 107.658 205.123 107.148 205.123C105.672 205.123 104.354 204.314 104.371 202.574V196.949H102.965V195.455H104.371V193.17H106.234V195.455H108.186ZM112.105 199.34V205H110.225V192.273H112.07V197.02H112.193C112.65 195.982 113.529 195.332 115.023 195.332C116.992 195.332 118.293 196.545 118.293 198.936V205H116.412V199.164C116.412 197.758 115.656 196.949 114.391 196.949C113.072 196.949 112.105 197.811 112.105 199.34ZM129.244 205H125.113V192.273H129.367C133.111 192.273 135.361 194.664 135.361 198.619C135.361 202.592 133.111 205 129.244 205ZM127.047 203.312H129.139C132.021 203.312 133.445 201.625 133.445 198.619C133.445 195.631 132.021 193.961 129.244 193.961H127.047V203.312ZM141.496 205.193C138.684 205.193 136.961 203.26 136.961 200.289C136.961 197.354 138.719 195.332 141.373 195.332C143.553 195.332 145.609 196.686 145.609 200.131V200.799H138.824C138.877 202.609 139.94 203.646 141.514 203.646C142.586 203.646 143.271 203.189 143.588 202.609H145.486C145.064 204.156 143.588 205.193 141.496 205.193ZM138.842 199.393H143.764C143.764 197.934 142.832 196.879 141.391 196.879C139.888 196.879 138.912 198.039 138.842 199.393ZM155.365 195.455L151.902 205H149.881L146.418 195.455H148.439L150.848 202.785H150.936L153.344 195.455H155.365ZM156.895 205V195.455H158.775V205H156.895ZM157.844 193.979C157.193 193.979 156.648 193.486 156.648 192.871C156.648 192.256 157.193 191.764 157.844 191.764C158.477 191.764 159.021 192.256 159.021 192.871C159.021 193.486 158.477 193.979 157.844 193.979ZM165.104 205.193C162.326 205.193 160.639 203.137 160.639 200.271C160.639 197.354 162.379 195.332 165.068 195.332C167.248 195.332 168.83 196.615 169.023 198.549H167.195C167.002 197.652 166.281 196.896 165.104 196.896C163.557 196.896 162.52 198.18 162.52 200.219C162.52 202.311 163.539 203.594 165.104 203.594C166.158 203.594 166.967 203.014 167.195 201.977H169.023C168.812 203.822 167.354 205.193 165.104 205.193ZM174.912 205.193C172.1 205.193 170.377 203.26 170.377 200.289C170.377 197.354 172.135 195.332 174.789 195.332C176.969 195.332 179.025 196.686 179.025 200.131V200.799H172.24C172.293 202.609 173.356 203.646 174.93 203.646C176.002 203.646 176.688 203.189 177.004 202.609H178.902C178.48 204.156 177.004 205.193 174.912 205.193ZM172.258 199.393H177.18C177.18 197.934 176.248 196.879 174.807 196.879C173.304 196.879 172.328 198.039 172.258 199.393ZM186.25 198.057C186.074 197.301 185.477 196.809 184.439 196.809C183.367 196.809 182.594 197.371 182.611 198.092C182.594 198.654 183.051 199.059 184.105 199.305L185.617 199.656C187.375 200.043 188.219 200.887 188.236 202.24C188.219 203.963 186.777 205.193 184.334 205.193C182.049 205.193 180.678 204.174 180.449 202.398H182.365C182.523 203.26 183.191 203.682 184.316 203.682C185.529 203.682 186.303 203.189 186.32 202.381C186.303 201.766 185.846 201.361 184.844 201.133L183.35 200.816C181.627 200.43 180.73 199.516 180.73 198.197C180.73 196.492 182.207 195.332 184.422 195.332C186.549 195.332 187.867 196.422 188.061 198.057H186.25ZM190.451 200.148C190.469 196.844 191.4 194.084 193.053 191.729H194.775C193.562 193.469 192.402 197.02 192.402 200.148C192.402 203.295 193.562 206.828 194.775 208.586H193.053C191.4 206.23 190.469 203.471 190.451 200.148ZM196.48 205V203.594L200.893 199.146C202.281 197.688 202.984 196.879 202.984 195.771C202.984 194.523 201.965 193.715 200.629 193.715C199.223 193.715 198.309 194.611 198.309 195.965H196.48C196.463 193.645 198.238 192.098 200.664 192.098C203.125 192.098 204.812 193.645 204.83 195.719C204.812 197.143 204.145 198.268 201.754 200.623L199.17 203.242V203.348H205.041V205H196.48ZM210.965 200.148C210.947 203.471 210.016 206.23 208.363 208.586H206.641C207.854 206.828 209.014 203.295 209.014 200.148C209.014 197.02 207.854 193.469 206.641 191.729H208.363C210.016 194.084 210.947 196.844 210.965 200.148Z" fill="#8B8B8B"/>
<path d="M41.3008 258V245.273H45.959C48.666 245.273 49.9844 246.732 49.9844 248.613C49.9844 250.195 49.0176 251.004 47.8398 251.303V251.426C49.1055 251.496 50.4766 252.604 50.4766 254.572C50.4766 256.523 49.1406 258 46.1699 258H41.3008ZM45.9941 256.348C47.8223 256.348 48.5605 255.539 48.5605 254.484C48.5605 253.271 47.5938 252.287 46.0645 252.287H43.2344V256.348H45.9941ZM45.8008 250.775C47.084 250.775 48.0859 249.984 48.0859 248.771C48.0859 247.717 47.3652 246.926 45.8359 246.926H43.2344V250.775H45.8008ZM54.2734 245.273V258H52.3926V245.273H54.2734ZM62.623 254.027V248.455H64.4863V258H62.6582V256.348H62.5527C62.1133 257.367 61.1289 258.123 59.7051 258.123C57.8594 258.123 56.5586 256.893 56.5586 254.52V248.455H58.4395V254.291C58.4395 255.592 59.2305 256.418 60.373 256.418C61.4102 256.418 62.623 255.662 62.623 254.027ZM70.8848 258.193C68.0723 258.193 66.3496 256.26 66.3496 253.289C66.3496 250.354 68.1074 248.332 70.7617 248.332C72.9414 248.332 74.998 249.686 74.998 253.131V253.799H68.2129C68.2656 255.609 69.3291 256.646 70.9023 256.646C71.9746 256.646 72.6602 256.189 72.9766 255.609H74.875C74.4531 257.156 72.9766 258.193 70.8848 258.193ZM68.2305 252.393H73.1523C73.1523 250.934 72.2207 249.879 70.7793 249.879C69.2764 249.879 68.3008 251.039 68.2305 252.393ZM81.3262 248.455V249.949H79.375V255.188C79.375 256.26 79.9199 256.453 80.5176 256.471C80.7812 256.471 81.2031 256.436 81.4668 256.418V258.053C81.2031 258.088 80.7988 258.123 80.2891 258.123C78.8125 258.123 77.4941 257.314 77.5117 255.574V249.949H76.1055V248.455H77.5117V246.17H79.375V248.455H81.3262ZM87.0918 258.193C84.3848 258.193 82.627 256.225 82.627 253.271C82.627 250.301 84.3848 248.332 87.0918 248.332C89.7812 248.332 91.5391 250.301 91.5391 253.271C91.5391 256.225 89.7812 258.193 87.0918 258.193ZM87.0918 256.629C88.8145 256.629 89.6406 255.1 89.6406 253.271C89.6406 251.443 88.8145 249.879 87.0918 249.879C85.334 249.879 84.5078 251.443 84.5078 253.271C84.5078 255.1 85.334 256.629 87.0918 256.629ZM97.4277 258.193C94.7207 258.193 92.9629 256.225 92.9629 253.271C92.9629 250.301 94.7207 248.332 97.4277 248.332C100.117 248.332 101.875 250.301 101.875 253.271C101.875 256.225 100.117 258.193 97.4277 258.193ZM97.4277 256.629C99.1504 256.629 99.9766 255.1 99.9766 253.271C99.9766 251.443 99.1504 249.879 97.4277 249.879C95.6699 249.879 94.8438 251.443 94.8438 253.271C94.8438 255.1 95.6699 256.629 97.4277 256.629ZM108.186 248.455V249.949H106.234V255.188C106.234 256.26 106.779 256.453 107.377 256.471C107.641 256.471 108.062 256.436 108.326 256.418V258.053C108.062 258.088 107.658 258.123 107.148 258.123C105.672 258.123 104.354 257.314 104.371 255.574V249.949H102.965V248.455H104.371V246.17H106.234V248.455H108.186ZM112.105 252.34V258H110.225V245.273H112.07V250.02H112.193C112.65 248.982 113.529 248.332 115.023 248.332C116.992 248.332 118.293 249.545 118.293 251.936V258H116.412V252.164C116.412 250.758 115.656 249.949 114.391 249.949C113.072 249.949 112.105 250.811 112.105 252.34ZM129.244 258H125.113V245.273H129.367C133.111 245.273 135.361 247.664 135.361 251.619C135.361 255.592 133.111 258 129.244 258ZM127.047 256.312H129.139C132.021 256.312 133.445 254.625 133.445 251.619C133.445 248.631 132.021 246.961 129.244 246.961H127.047V256.312ZM141.496 258.193C138.684 258.193 136.961 256.26 136.961 253.289C136.961 250.354 138.719 248.332 141.373 248.332C143.553 248.332 145.609 249.686 145.609 253.131V253.799H138.824C138.877 255.609 139.94 256.646 141.514 256.646C142.586 256.646 143.271 256.189 143.588 255.609H145.486C145.064 257.156 143.588 258.193 141.496 258.193ZM138.842 252.393H143.764C143.764 250.934 142.832 249.879 141.391 249.879C139.888 249.879 138.912 251.039 138.842 252.393ZM155.365 248.455L151.902 258H149.881L146.418 248.455H148.439L150.848 255.785H150.936L153.344 248.455H155.365ZM156.895 258V248.455H158.775V258H156.895ZM157.844 246.979C157.193 246.979 156.648 246.486 156.648 245.871C156.648 245.256 157.193 244.764 157.844 244.764C158.477 244.764 159.021 245.256 159.021 245.871C159.021 246.486 158.477 246.979 157.844 246.979ZM165.104 258.193C162.326 258.193 160.639 256.137 160.639 253.271C160.639 250.354 162.379 248.332 165.068 248.332C167.248 248.332 168.83 249.615 169.023 251.549H167.195C167.002 250.652 166.281 249.896 165.104 249.896C163.557 249.896 162.52 251.18 162.52 253.219C162.52 255.311 163.539 256.594 165.104 256.594C166.158 256.594 166.967 256.014 167.195 254.977H169.023C168.812 256.822 167.354 258.193 165.104 258.193ZM174.912 258.193C172.1 258.193 170.377 256.26 170.377 253.289C170.377 250.354 172.135 248.332 174.789 248.332C176.969 248.332 179.025 249.686 179.025 253.131V253.799H172.24C172.293 255.609 173.356 256.646 174.93 256.646C176.002 256.646 176.688 256.189 177.004 255.609H178.902C178.48 257.156 177.004 258.193 174.912 258.193ZM172.258 252.393H177.18C177.18 250.934 176.248 249.879 174.807 249.879C173.304 249.879 172.328 251.039 172.258 252.393ZM186.25 251.057C186.074 250.301 185.477 249.809 184.439 249.809C183.367 249.809 182.594 250.371 182.611 251.092C182.594 251.654 183.051 252.059 184.105 252.305L185.617 252.656C187.375 253.043 188.219 253.887 188.236 255.24C188.219 256.963 186.777 258.193 184.334 258.193C182.049 258.193 180.678 257.174 180.449 255.398H182.365C182.523 256.26 183.191 256.682 184.316 256.682C185.529 256.682 186.303 256.189 186.32 255.381C186.303 254.766 185.846 254.361 184.844 254.133L183.35 253.816C181.627 253.43 180.73 252.516 180.73 251.197C180.73 249.492 182.207 248.332 184.422 248.332C186.549 248.332 187.867 249.422 188.061 251.057H186.25ZM194.846 253.148C194.863 249.844 195.795 247.084 197.447 244.729H199.17C197.957 246.469 196.797 250.02 196.797 253.148C196.797 256.295 197.957 259.828 199.17 261.586H197.447C195.795 259.23 194.863 256.471 194.846 253.148ZM205.393 258.176C202.756 258.176 200.875 256.752 200.805 254.678H202.773C202.844 255.803 203.951 256.506 205.375 256.506C206.904 256.506 208.029 255.662 208.029 254.432C208.029 253.184 206.975 252.27 205.164 252.27H204.074V250.688H205.164C206.605 250.688 207.625 249.879 207.625 248.666C207.625 247.506 206.764 246.715 205.41 246.715C204.127 246.715 203.002 247.418 202.949 248.578H201.086C201.139 246.504 203.055 245.098 205.428 245.098C207.924 245.098 209.506 246.68 209.488 248.561C209.506 250.002 208.609 251.057 207.238 251.391V251.479C208.979 251.725 209.98 252.885 209.98 254.502C209.98 256.629 208.029 258.176 205.393 258.176ZM215.887 253.148C215.869 256.471 214.938 259.23 213.285 261.586H211.562C212.775 259.828 213.936 256.295 213.936 253.148C213.936 250.02 212.775 246.469 211.562 244.729H213.285C214.938 247.084 215.869 249.844 215.887 253.148Z" fill="#8B8B8B"/>
<path fill-rule="evenodd" clip-rule="evenodd" d="M33.9993 314.333C34.4596 314.333 34.8327 314.707 34.8327 315.167V318.5C34.8327 318.96 34.4596 319.333 33.9993 319.333C33.5391 319.333 33.166 318.96 33.166 318.5V315.167C33.166 314.707 33.5391 314.333 33.9993 314.333Z" fill="#8B8B8B"/>
<path fill-rule="evenodd" clip-rule="evenodd" d="M40.5053 316.994C40.8307 317.32 40.8307 317.847 40.5053 318.173L38.0887 320.589C37.7632 320.915 37.2356 320.915 36.9101 320.589C36.5847 320.264 36.5847 319.736 36.9101 319.411L39.3267 316.994C39.6522 316.669 40.1798 316.669 40.5053 316.994Z" fill="#8B8B8B"/>
<path fill-rule="evenodd" clip-rule="evenodd" d="M38.166 323.5C38.166 323.04 38.5391 322.667 38.9993 322.667H42.3327C42.7929 322.667 43.166 323.04 43.166 323.5C43.166 323.96 42.7929 324.333 42.3327 324.333H38.9993C38.5391 324.333 38.166 323.96 38.166 323.5Z" fill="#8B8B8B"/>
<path fill-rule="evenodd" clip-rule="evenodd" d="M36.9101 326.411C37.2356 326.085 37.7632 326.085 38.0887 326.411L40.5053 328.827C40.8307 329.153 40.8307 329.68 40.5053 330.006C40.1798 330.331 39.6522 330.331 39.3267 330.006L36.9101 327.589C36.5847 327.264 36.5847 326.736 36.9101 326.411Z" fill="#8B8B8B"/>
<path fill-rule="evenodd" clip-rule="evenodd" d="M33.9993 327.667C34.4596 327.667 34.8327 328.04 34.8327 328.5V331.833C34.8327 332.293 34.4596 332.667 33.9993 332.667C33.5391 332.667 33.166 332.293 33.166 331.833V328.5C33.166 328.04 33.5391 327.667 33.9993 327.667Z" fill="#8B8B8B"/>
<path fill-rule="evenodd" clip-rule="evenodd" d="M31.0893 326.411C31.4147 326.736 31.4147 327.264 31.0893 327.589L28.6726 330.006C28.3472 330.331 27.8195 330.331 27.4941 330.006C27.1686 329.68 27.1686 329.153 27.4941 328.827L29.9107 326.411C30.2362 326.085 30.7638 326.085 31.0893 326.411Z" fill="#8B8B8B"/>
<path fill-rule="evenodd" clip-rule="evenodd" d="M24.834 323.5C24.834 323.04 25.2071 322.667 25.6673 322.667H29.0007C29.4609 322.667 29.834 323.04 29.834 323.5C29.834 323.96 29.4609 324.333 29.0007 324.333H25.6673C25.2071 324.333 24.834 323.96 24.834 323.5Z" fill="#8B8B8B"/>
<path fill-rule="evenodd" clip-rule="evenodd" d="M27.4941 316.994C27.8195 316.669 28.3472 316.669 28.6726 316.994L31.0893 319.411C31.4147 319.736 31.4147 320.264 31.0893 320.589C30.7638 320.915 30.2362 320.915 29.9107 320.589L27.4941 318.173C27.1686 317.847 27.1686 317.32 27.4941 316.994Z" fill="#8B8B8B"/>
<path d="M58.2266 320.631C58.1035 319.453 57.0664 318.768 55.6074 318.768C54.043 318.768 53.0586 319.559 53.0586 320.648C53.0586 321.861 54.377 322.318 55.3789 322.564L56.6094 322.898C58.2441 323.285 60.2656 324.182 60.2832 326.484C60.2656 328.629 58.5605 330.211 55.5547 330.211C52.707 330.211 50.9141 328.787 50.791 326.467H52.7246C52.8477 327.855 54.0605 328.523 55.5547 328.523C57.1719 328.523 58.3496 327.697 58.3672 326.449C58.3496 325.342 57.3125 324.885 55.959 324.533L54.4473 324.129C52.4082 323.566 51.125 322.529 51.125 320.754C51.125 318.557 53.0938 317.098 55.6602 317.098C58.2441 317.098 60.0547 318.574 60.1074 320.631H58.2266ZM66.2422 330.193C63.4648 330.193 61.7773 328.137 61.7773 325.271C61.7773 322.354 63.5176 320.332 66.207 320.332C68.3867 320.332 69.9688 321.615 70.1621 323.549H68.334C68.1406 322.652 67.4199 321.896 66.2422 321.896C64.6953 321.896 63.6582 323.18 63.6582 325.219C63.6582 327.311 64.6777 328.594 66.2422 328.594C67.2969 328.594 68.1055 328.014 68.334 326.977H70.1621C69.9512 328.822 68.4922 330.193 66.2422 330.193ZM71.498 327.311C71.498 325.131 73.3438 324.568 75.0664 324.445C75.6992 324.401 77.1318 324.322 77.5801 324.305L77.5625 323.549C77.5625 322.477 76.9121 321.844 75.6289 321.844C74.5215 321.844 73.8535 322.354 73.6602 323.057H71.7969C71.9727 321.475 73.4492 320.332 75.6992 320.332C77.2109 320.332 79.4434 320.895 79.4434 323.654V330H77.6152V328.699H77.5449C77.1758 329.42 76.2969 330.211 74.7148 330.211C72.9043 330.211 71.498 329.174 71.498 327.311ZM73.3262 327.328C73.3262 328.242 74.082 328.717 75.1367 328.717C76.666 328.717 77.5801 327.697 77.5801 326.555V325.676L75.3301 325.834C74.0996 325.922 73.3262 326.379 73.3262 327.328ZM83.5918 324.34V330H81.7109V320.455H83.5215V322.02H83.627C84.084 321 85.0156 320.332 86.4395 320.332C88.4082 320.332 89.6914 321.562 89.6914 323.936V330H87.8281V324.164C87.8281 322.775 87.0723 321.949 85.8066 321.949C84.5234 321.949 83.5918 322.811 83.5918 324.34ZM93.8574 324.34V330H91.9766V320.455H93.7871V322.02H93.8926C94.3496 321 95.2812 320.332 96.7051 320.332C98.6738 320.332 99.957 321.562 99.957 323.936V330H98.0938V324.164C98.0938 322.775 97.3379 321.949 96.0723 321.949C94.7891 321.949 93.8574 322.811 93.8574 324.34ZM102.242 330V320.455H104.123V330H102.242ZM103.191 318.979C102.541 318.979 101.996 318.486 101.996 317.871C101.996 317.256 102.541 316.764 103.191 316.764C103.824 316.764 104.369 317.256 104.369 317.871C104.369 318.486 103.824 318.979 103.191 318.979ZM108.289 324.34V330H106.408V320.455H108.219V322.02H108.324C108.781 321 109.713 320.332 111.137 320.332C113.105 320.332 114.389 321.562 114.389 323.936V330H112.525V324.164C112.525 322.775 111.77 321.949 110.504 321.949C109.221 321.949 108.289 322.811 108.289 324.34ZM120.682 333.779C118.273 333.779 116.691 332.707 116.516 330.932H118.432C118.607 331.828 119.451 332.268 120.699 332.268C122.193 332.268 123.143 331.635 123.143 330.141V328.26H123.02C122.686 328.875 122 329.859 120.242 329.859C117.992 329.859 116.252 328.172 116.252 325.131C116.252 322.09 117.957 320.332 120.26 320.332C122.035 320.332 122.686 321.404 123.037 322.002H123.16V320.455H124.988V330.211C124.988 332.654 123.143 333.779 120.682 333.779ZM120.664 328.312C122.264 328.312 123.16 327.135 123.16 325.166C123.16 323.232 122.281 321.932 120.664 321.932C118.994 321.932 118.168 323.338 118.168 325.166C118.168 327.029 119.029 328.312 120.664 328.312Z" fill="#8B8B8B"/>
<path d="M287 316.5C287 304.074 297.074 294 309.5 294H361.5C373.926 294 384 304.074 384 316.5C384 328.926 373.926 339 361.5 339H309.5C297.074 339 287 328.926 287 316.5Z" fill="#EFF0F2"/>
<path d="M316.914 314.422C316.598 312.787 315.244 311.873 313.627 311.873C311.43 311.873 309.795 313.561 309.795 316.637C309.795 319.73 311.447 321.4 313.627 321.4C315.227 321.4 316.58 320.504 316.914 318.887L318.865 318.904C318.461 321.418 316.404 323.176 313.609 323.176C310.287 323.176 307.879 320.697 307.879 316.637C307.879 312.559 310.305 310.098 313.609 310.098C316.299 310.098 318.426 311.68 318.865 314.422H316.914ZM320.359 320.311C320.359 318.131 322.205 317.568 323.928 317.445C324.561 317.401 325.993 317.322 326.441 317.305L326.424 316.549C326.424 315.477 325.773 314.844 324.49 314.844C323.383 314.844 322.715 315.354 322.521 316.057H320.658C320.834 314.475 322.311 313.332 324.561 313.332C326.072 313.332 328.305 313.895 328.305 316.654V323H326.477V321.699H326.406C326.037 322.42 325.158 323.211 323.576 323.211C321.766 323.211 320.359 322.174 320.359 320.311ZM322.188 320.328C322.188 321.242 322.943 321.717 323.998 321.717C325.527 321.717 326.441 320.697 326.441 319.555V318.676L324.191 318.834C322.961 318.922 322.188 319.379 322.188 320.328ZM332.453 317.34V323H330.572V313.455H332.383V315.02H332.488C332.945 314 333.877 313.332 335.301 313.332C337.27 313.332 338.553 314.562 338.553 316.936V323H336.689V317.164C336.689 315.775 335.934 314.949 334.668 314.949C333.385 314.949 332.453 315.811 332.453 317.34ZM344.881 323.193C342.104 323.193 340.416 321.137 340.416 318.271C340.416 315.354 342.156 313.332 344.846 313.332C347.025 313.332 348.607 314.615 348.801 316.549H346.973C346.779 315.652 346.059 314.896 344.881 314.896C343.334 314.896 342.297 316.18 342.297 318.219C342.297 320.311 343.316 321.594 344.881 321.594C345.936 321.594 346.744 321.014 346.973 319.977H348.801C348.59 321.822 347.131 323.193 344.881 323.193ZM352.457 310.273V323H350.576V310.273H352.457ZM358.855 323.193C356.043 323.193 354.32 321.26 354.32 318.289C354.32 315.354 356.078 313.332 358.732 313.332C360.912 313.332 362.969 314.686 362.969 318.131V318.799H356.184C356.236 320.609 357.3 321.646 358.873 321.646C359.945 321.646 360.631 321.189 360.947 320.609H362.846C362.424 322.156 360.947 323.193 358.855 323.193ZM356.201 317.393H361.123C361.123 315.934 360.191 314.879 358.75 314.879C357.247 314.879 356.271 316.039 356.201 317.393Z" fill="#8B8B8B"/>
</g>
<defs>
<filter id="filter0_d_539_2164" x="0" y="0" width="408" height="369" filterUnits="userSpaceOnUse" color-interpolation-filters="sRGB">
<feFlood flood-opacity="0" result="BackgroundImageFix"/>
<feColorMatrix in="SourceAlpha" type="matrix" values="0 0 0 0 0 0 0 0 0 0 0 0 0 0 0 0 0 0 127 0" result="hardAlpha"/>
<feOffset dy="2"/>
<feGaussianBlur stdDeviation="2"/>
<feComposite in2="hardAlpha" operator="out"/>
<feColorMatrix type="matrix" values="0 0 0 0 0 0 0 0 0 0 0 0 0 0 0 0 0 0 0.05 0"/>
<feBlend mode="normal" in2="BackgroundImageFix" result="effect1_dropShadow_539_2164"/>
<feBlend mode="normal" in="SourceGraphic" in2="effect1_dropShadow_539_2164" result="shape"/>
</filter>
</defs>
</svg>
